<svg xmlns="http://www.w3.org/2000/svg" width="800" height="500" viewBox="0 0 800 500"><rect width="800" height="500" fill="white"/><text x="400" y="30" text-anchor="middle" font-family="sans-serif" font-size="20">V2-E: 120-minute scenario stress test (135 scenarios)</text><line x1="80" y1="430" x2="760" y2="430" stroke="black"/><line x1="80" y1="55" x2="80" y2="430" stroke="black"/><line x1="80" y1="190.1" x2="760" y2="190.1" stroke="#999" stroke-dasharray="5 5"/><circle cx="194.48" cy="333.21" r="4" fill="#4c78a8"/><circle cx="126.90" cy="310.90" r="4" fill="#4c78a8"/><circle cx="168.90" cy="326.32" r="4" fill="#4c78a8"/><circle cx="399.70" cy="208.64" r="4" fill="#4c78a8"/><circle cx="332.11" cy="185.38" r="4" fill="#4c78a8"/><circle cx="374.12" cy="196.80" r="4" fill="#4c78a8"/><circle cx="553.61" cy="115.24" r="4" fill="#4c78a8"/><circle cx="486.02" cy="91.29" r="4" fill="#4c78a8"/><circle cx="528.03" cy="105.10" r="4" fill="#4c78a8"/><circle cx="353.98" cy="393.71" r="4" fill="#4c78a8"/><circle cx="286.39" cy="365.82" r="4" fill="#4c78a8"/><circle cx="328.40" cy="376.62" r="4" fill="#4c78a8"/><circle cx="559.19" cy="257.71" r="4" fill="#4c78a8"/><circle cx="491.61" cy="243.22" r="4" fill="#4c78a8"/><circle cx="533.61" cy="250.04" r="4" fill="#4c78a8"/><circle cx="713.10" cy="167.23" r="4" fill="#4c78a8"/><circle cx="645.52" cy="143.28" r="4" fill="#4c78a8"/><circle cx="687.52" cy="159.11" r="4" fill="#4c78a8"/><circle cx="285.62" cy="365.70" r="4" fill="#4c78a8"/><circle cx="218.04" cy="340.74" r="4" fill="#4c78a8"/><circle cx="260.04" cy="353.73" r="4" fill="#4c78a8"/><circle cx="490.84" cy="237.66" r="4" fill="#4c78a8"/><circle cx="423.25" cy="214.53" r="4" fill="#4c78a8"/><circle cx="465.26" cy="230.84" r="4" fill="#4c78a8"/><circle cx="644.75" cy="145.32" r="4" fill="#4c78a8"/><circle cx="577.16" cy="123.82" r="4" fill="#4c78a8"/><circle cx="619.17" cy="134.70" r="4" fill="#4c78a8"/><text x="420" y="485" text-anchor="middle" font-family="sans-serif" font-size="14">Expected Δ track temperature (°C)</text><text x="20" y="250" transform="rotate(-90 20 250)" text-anchor="middle" font-family="sans-serif" font-size="14">Expected Δ speed (mph)</text></svg>