<svg xmlns="http://www.w3.org/2000/svg" width="1000" height="520"><rect width="1000" height="520" fill="white"/><style>text{font-family:Arial,sans-serif;fill:#111}.t{font-size:24px;font-weight:700}.s{font-size:15px}.a{font-size:13px}.axis{stroke:#333}.cool{fill:none;stroke:#4c78a8;stroke-width:4}.neutral{fill:none;stroke:#777;stroke-width:4}.warm{fill:none;stroke:#f58518;stroke-width:4}</style><text x="500" y="35" text-anchor="middle" class="t">Operational Performance Outlook — Frozen FINAL_V2 Anchors</text><line x1="100" y1="420" x2="920" y2="420" class="axis"/><line x1="100" y1="90" x2="100" y2="420" class="axis"/><line x1="100" y1="260" x2="920" y2="260" stroke="#999" stroke-dasharray="6 5"/><polyline points="160,284 330,306 500,352 670,392 850,423" class="cool"/><polyline points="160,269 330,276 500,291 670,299 850,306" class="neutral"/><polyline points="160,247 330,238 500,221 670,207 850,186" class="warm"/><g class="a" text-anchor="middle"><text x="160" y="445">15</text><text x="330" y="445">30</text><text x="500" y="445">60</text><text x="670" y="445">90</text><text x="850" y="445">120 min</text></g><text x="840" y="178" class="a">Warming: +0.164 mph</text><text x="840" y="298" class="a">Neutral: −0.100 mph</text><text x="810" y="415" class="a">Cooling: −0.359 mph</text><text x="500" y="485" text-anchor="middle" class="a">Only 15 / 30 / 60 / 90 / 120 min are independently calibrated. Minute-level OPERATIONAL_CURVE_V2 values are derived presentation interpolations, not new model calibration.</text></svg>